<svg width="40px" height="40px" viewBox="0 0 40 40" class="hidden" xmlns="http://www.w3.org/2000/svg" xmlns:xlink="http://www.w3.org/1999/xlink">
<!--

LICENSE
=======

Draughts pieces
~~~~~~~~~~~~~~~

The draughts pieces in this sprite are copies from Wikimedia Commons
https://commons.wikimedia.org/wiki/Category:SVG_draughts_tiles

License: Attribution-ShareAlike 3.0 Unported (CC BY-SA 3.0)
https://creativecommons.org/licenses/by-sa/3.0/

modified by Wieger Wesselink (https://10x10.org) for the usage in cm-draughtsboard.
-->
    <title>cm-board draughts pieces and markers sprite</title>
    <g id="Sprite-Draughts">
        <g id="wp">
          <defs>
            <linearGradient id="grad1" gradientTransform="scale(.29046 .12491)" x1="5.574" y1="157.827" x2="132.14" y2="157.827" gradientUnits="userSpaceOnUse">
              <stop offset="0" stop-color="#7f7f7f"></stop>
              <stop offset=".5" stop-color="#fff"></stop>
              <stop offset="1" stop-color="#fff"></stop>
            </linearGradient>
          </defs>
          <path d="M1.905 26.667c0 11.428 36.19 11.428 36.19 0V20H1.905z" fill="url(#grad1)" stroke="#000" stroke-width=".571"></path>
          <path d="M1.905 20c0 11.429 36.19 11.429 36.19 0S1.905 8.571 1.905 20z" fill="#fff" stroke="#000" stroke-width=".571"></path>
        </g>
        <g id="wq">
          <defs>
            <linearGradient id="grad2" gradientTransform="scale(.29046 .12491)" x1="5.574" y1="104.455" x2="132.14" y2="104.455" gradientUnits="userSpaceOnUse">
              <stop offset="0" stop-color="#7f7f7f"></stop>
              <stop offset=".5" stop-color="#fff"></stop>
              <stop offset="1" stop-color="#fff"></stop>
            </linearGradient>
            <linearGradient id="grad3" gradientTransform="scale(.29046 .12491)" x1="5.574" y1="157.827" x2="132.14" y2="157.827" gradientUnits="userSpaceOnUse">
              <stop offset="0" stop-color="#7f7f7f"></stop>
              <stop offset=".5" stop-color="#fff"></stop>
              <stop offset="1" stop-color="#fff"></stop>
            </linearGradient>
          </defs>
          <path d="M1.905 26.667c0 11.428 36.19 11.428 36.19 0V20H1.905z" fill="url(#grad3)" stroke="#000" stroke-width=".571"></path>
          <path d="M1.905 20c0 11.429 36.19 11.429 36.19 0v-6.667H1.905z" fill="url(#grad2)" stroke="#000" stroke-width=".571"></path>
          <path d="M1.905 13.333c0 11.429 36.19 11.429 36.19 0 0-11.428-36.19-11.428-36.19 0z" fill="#fff" stroke="#000" stroke-width=".571"></path>
        </g>
        <g id="bp">
          <defs>
            <linearGradient id="grad4" gradientTransform="scale(.29046 .12491)" x1="5.574" y1="157.827" x2="132.14" y2="157.827" gradientUnits="userSpaceOnUse">
              <stop offset="0"></stop>
              <stop offset=".5"></stop>
              <stop offset="1" stop-color="#9f9f9f"></stop>
            </linearGradient>
          </defs>
          <path d="M1.905 26.667c0 11.428 36.19 11.428 36.19 0V20H1.905z" fill="url(#grad4)" stroke="#dfdfdf" stroke-width=".571"></path>
          <path d="M1.905 20c0 11.429 36.19 11.429 36.19 0S1.905 8.571 1.905 20" stroke="#dfdfdf" stroke-width=".571"></path>
        </g>
        <g id="bq">
          <defs>
            <linearGradient id="grad5" gradientTransform="scale(.29046 .12491)" x1="5.574" y1="157.827" x2="132.14" y2="157.827" gradientUnits="userSpaceOnUse">
              <stop offset="0"></stop>
              <stop offset=".5"></stop>
              <stop offset="1" stop-color="#9f9f9f"></stop>
            </linearGradient>
            <linearGradient id="grad6" gradientTransform="scale(.29046 .12491)" x1="5.574" y1="104.455" x2="132.14" y2="104.455" gradientUnits="userSpaceOnUse">
              <stop offset="0"></stop>
              <stop offset=".5"></stop>
              <stop offset="1" stop-color="#9f9f9f"></stop>
            </linearGradient>
          </defs>
          <path d="M1.905 26.667c0 11.428 36.19 11.428 36.19 0V20H1.905z" fill="url(#grad5)" stroke="#dfdfdf" stroke-width=".571"></path>
          <path d="M1.905 20c0 11.429 36.19 11.429 36.19 0v-6.667H1.905z" fill="url(#grad6)" stroke="#dfdfdf" stroke-width=".571"></path>
          <path d="M1.905 13.333c0 11.429 36.19 11.429 36.19 0 0-11.428-36.19-11.428-36.19 0z" stroke="#dfdfdf" stroke-width=".571"></path>
        </g>
        <g id="markerFrame" transform="translate(2.000000, 2.000000)" fill="#000000" fill-opacity="0">
            <path d="M2.66453526e-15,10.5882353 L2.66453526e-15,2.11764706 C2.66453526e-15,1.41176471 0.176470588,0.882352941 0.529411765,0.529411765 C0.882352941,0.176470588 1.41176471,-2.84217094e-14 2.11764706,-2.84217094e-14 L10.5882353,-2.84217094e-14" id="Path"/>
            <path d="M25.4117647,36 L25.4117647,27.5294118 C25.4117647,26.8235294 25.5882353,26.2941176 25.9411765,25.9411765 C26.2941176,25.5882353 26.8235294,25.4117647 27.5294118,25.4117647 L36,25.4117647" id="Path" transform="translate(30.705882, 30.705882) rotate(-180.000000) translate(-30.705882, -30.705882) "/>
            <path d="M0,36 L0,27.5294118 C0,26.8235294 0.176470588,26.2941176 0.529411765,25.9411765 C0.882352941,25.5882353 1.41176471,25.4117647 2.11764706,25.4117647 L10.5882353,25.4117647" id="Path" transform="translate(5.294118, 30.705882) rotate(-90.000000) translate(-5.294118, -30.705882) "/>
            <path d="M25.4117647,10.5882353 L25.4117647,2.11764706 C25.4117647,1.41176471 25.5882353,0.882352941 25.9411765,0.529411765 C26.2941176,0.176470588 26.8235294,0 27.5294118,0 L36,0" id="Path" transform="translate(30.705882, 5.294118) rotate(-270.000000) translate(-30.705882, -5.294118) "/>
        </g>
        <g id="markerCircle" fill="#000000" fill-opacity="0">
            <circle cx="20" cy="20" r="18"/>
        </g>
        <g id="markerDot">
            <circle cx="20" cy="20" r="8"/>
        </g>
        <g id="markerSquare">
            <rect x="0" y="0" width="40" height="40"/>
        </g>
    </g>
</svg>
